<svg width="32" height="32" viewBox="0 0 32 32" fill="none" xmlns="http://www.w3.org/2000/svg">
<path d="M0 8.42105C0 3.77023 3.77023 0 8.42105 0H23.5789C28.2298 0 32 3.77023 32 8.42105V23.5789C32 28.2298 28.2298 32 23.5789 32H8.42105C3.77023 32 0 28.2298 0 23.5789V8.42105Z" fill="#F97316"/>
<path d="M8.42 8.42C8.42 7.49 9.18 6.74 10.11 6.74 11.04 6.74 11.79 7.49 11.79 8.42V23.58c0 .93-.75 1.68-1.68 1.68s-1.68-.75-1.68-1.68V8.42z" fill="white"/>
<path d="M14.74 15.16c0-.93.75-1.68 1.68-1.68.93 0 1.68.75 1.68 1.68v8.42c0 .93-.75 1.68-1.68 1.68s-1.68-.75-1.68-1.68v-8.42z" fill="white" fill-opacity="0.9"/>
<path d="M21.05 10.95c0-.93.75-1.68 1.68-1.68.93 0 1.68.75 1.68 1.68v12.63c0 .93-.75 1.68-1.68 1.68s-1.68-.75-1.68-1.68V10.95z" fill="white" fill-opacity="0.7"/>
</svg>
