<svg width="200" height="32" viewBox="0 0 200 32" fill="none" xmlns="http://www.w3.org/2000/svg">
<path d="M0 8.42105C0 3.77023 3.77023 0 8.42105 0H23.5789C28.2298 0 32 3.77023 32 8.42105V23.5789C32 28.2298 28.2298 32 23.5789 32H8.42105C3.77023 32 0 28.2298 0 23.5789V8.42105Z" fill="#F97316"/>
<g filter="url(#filter0_d_logo)">
<path d="M8.42 8.42C8.42 7.49 9.18 6.74 10.11 6.74 11.04 6.74 11.79 7.49 11.79 8.42V23.58c0 .93-.75 1.68-1.68 1.68s-1.68-.75-1.68-1.68V8.42z" fill="white"/>
</g>
<g filter="url(#filter1_d_logo)">
<path d="M14.74 15.16c0-.93.75-1.68 1.68-1.68.93 0 1.68.75 1.68 1.68v8.42c0 .93-.75 1.68-1.68 1.68s-1.68-.75-1.68-1.68v-8.42z" fill="white" fill-opacity="0.9"/>
</g>
<g filter="url(#filter2_d_logo)">
<path d="M21.05 10.95c0-.93.75-1.68 1.68-1.68.93 0 1.68.75 1.68 1.68v12.63c0 .93-.75 1.68-1.68 1.68s-1.68-.75-1.68-1.68V10.95z" fill="white" fill-opacity="0.7"/>
</g>
<text x="44" y="22" font-family="Inter, system-ui, sans-serif" font-size="16" font-weight="700" fill="#101828">Pawpointers Dashboard</text>
<defs>
<filter id="filter0_d_logo" x="7.42" y="6.24" width="5.37" height="20.53" filterUnits="userSpaceOnUse" color-interpolation-filters="sRGB">
<feFlood flood-opacity="0" result="BackgroundImageFix"/>
<feColorMatrix in="SourceAlpha" type="matrix" values="0 0 0 0 0 0 0 0 0 0 0 0 0 0 0 0 0 0 127 0" result="hardAlpha"/>
<feOffset dy="0.5"/>
<feGaussianBlur stdDeviation="0.5"/>
<feComposite in2="hardAlpha" operator="out"/>
<feColorMatrix type="matrix" values="0 0 0 0 0 0 0 0 0 0 0 0 0 0 0 0 0 0 0.12 0"/>
<feBlend mode="normal" in2="BackgroundImageFix" result="effect1_dropShadow_logo"/>
<feBlend mode="normal" in="SourceGraphic" in2="effect1_dropShadow_logo" result="shape"/>
</filter>
<filter id="filter1_d_logo" x="13.74" y="12.97" width="5.37" height="13.79" filterUnits="userSpaceOnUse" color-interpolation-filters="sRGB">
<feFlood flood-opacity="0" result="BackgroundImageFix"/>
<feColorMatrix in="SourceAlpha" type="matrix" values="0 0 0 0 0 0 0 0 0 0 0 0 0 0 0 0 0 0 127 0" result="hardAlpha"/>
<feOffset dy="0.5"/>
<feGaussianBlur stdDeviation="0.5"/>
<feComposite in2="hardAlpha" operator="out"/>
<feColorMatrix type="matrix" values="0 0 0 0 0 0 0 0 0 0 0 0 0 0 0 0 0 0 0.12 0"/>
<feBlend mode="normal" in2="BackgroundImageFix" result="effect1_dropShadow_logo"/>
<feBlend mode="normal" in="SourceGraphic" in2="effect1_dropShadow_logo" result="shape"/>
</filter>
<filter id="filter2_d_logo" x="20.05" y="8.76" width="5.37" height="18" filterUnits="userSpaceOnUse" color-interpolation-filters="sRGB">
<feFlood flood-opacity="0" result="BackgroundImageFix"/>
<feColorMatrix in="SourceAlpha" type="matrix" values="0 0 0 0 0 0 0 0 0 0 0 0 0 0 0 0 0 0 127 0" result="hardAlpha"/>
<feOffset dy="0.5"/>
<feGaussianBlur stdDeviation="0.5"/>
<feComposite in2="hardAlpha" operator="out"/>
<feColorMatrix type="matrix" values="0 0 0 0 0 0 0 0 0 0 0 0 0 0 0 0 0 0 0.12 0"/>
<feBlend mode="normal" in2="BackgroundImageFix" result="effect1_dropShadow_logo"/>
<feBlend mode="normal" in="SourceGraphic" in2="effect1_dropShadow_logo" result="shape"/>
</filter>
</defs>
</svg>
